#!OML:ASF X:\für Bonn\!DataBase\2005_08_10_Bjorn_Final\c3d\bjorn.ASF
:FULLY-SPECIFIED
:DEGREES
619
root 0.596307 1.64913 18.1331 -441.301 -175.031 -715.651
lowerback -10.8258 1.71707 -2.33013
upperback -0.328864 2.5796 -4.39273
thorax 5.83618 1.15692 -2.90881
lowerneck -11.4182 -7.26858 -5.39368
upperneck 3.34662 -9.96613 8.95997
head 3.56932 -4.80376 2.90125
rclavicle -3.18055e-015 1.89839e-014
rhumerus -237.38 -212.425 95.2671
rradius 123.855
rwrist -13.7962
rhand -16.6928 12.4638
rfingers 7.12502
rthumb 9.53172 -17.3007
lclavicle -3.18055e-015 1.89839e-014
lhumerus -46.3179 -60.3119 83.2605
lradius 113.222
lwrist 19.1359
lhand -17.239 -375.898
lfingers 7.12502
lthumb 9.00474 13.89
rfemur -19.2298 -21.3085 11.7473
rtibia 29.7903
rfoot 6.58847 -1.63975
rtoes 8.92543
lfemur 162.341 176.873 164.656
ltibia 24.6171
lfoot 6.37015 -0.613192
ltoes 10.969
620
root 0.594591 1.64695 18.1327 -441.353 -175.031 -715.596
lowerback -10.768 1.67415 -2.372
upperback -0.310884 2.52772 -4.35625
thorax 5.81708 1.1317 -2.85562
lowerneck -11.3881 -7.24228 -5.30607
upperneck 3.22904 -9.92399 8.84511
head 3.51502 -4.78805 2.85998
rclavicle -6.36111e-015 1.33186e-014
rhumerus -237.438 -212.727 94.986
rradius 123.748
rwrist -14.1342
rhand -16.781 12.2915
rfingers 7.12502
rthumb 9.44661 -17.4768
lclavicle -6.36111e-015 1.33186e-014
lhumerus -46.7189 -60.3832 83.7849
lradius 113.126
lwrist 19.4269
lhand -17.1204 -375.813
lfingers 7.12502
lthumb 9.11915 13.9697
rfemur -19.1313 -21.4685 11.7083
rtibia 29.7654
rfoot 6.39708 -1.81997
rtoes 8.87434
lfemur 162.367 176.91 164.672
ltibia 24.6519
lfoot 6.26153 -0.484247
ltoes 11.0146
621
root 0.592941 1.64521 18.1327 -441.39 -175.047 -715.533
lowerback -10.7443 1.631 -2.40405
upperback -0.277565 2.47738 -4.31771
thorax 5.83399 1.10753 -2.80488
lowerneck -11.4167 -7.21581 -5.18357
upperneck 3.12753 -9.88407 8.70649
head 3.47224 -4.77229 2.80374
rclavicle 3.18055e-014 -5.65542e-014
rhumerus -237.473 -213.013 94.6857
rradius 123.593
rwrist -14.4095
rhand -16.8615 12.1757
rfingers 7.12502
rthumb 9.369 -17.5961
lclavicle 3.18055e-014 -5.65542e-014
lhumerus -47.033 -60.4808 84.2235
lradius 113.031
lwrist 19.7354
lhand -16.9846 -375.77
lfingers 7.12502
lthumb 9.25016 14.0067
rfemur -19.0599 -21.7089 11.6976
rtibia 29.7441
rfoot 6.29778 -1.87806
rtoes 8.57206
lfemur 162.383 176.982 164.703
ltibia 24.6813
lfoot 6.133 -0.331933
ltoes 11.0684
622
root 0.59127 1.64335 18.1329 -441.416 -175.049 -715.467
lowerback -10.7217 1.58181 -2.44761
upperback -0.252075 2.41975 -4.2754
thorax 5.84248 1.07941 -2.74479
lowerneck -11.4295 -7.18818 -5.10826
upperneck 3.01849 -9.83684 8.5882
head 3.42767 -4.75282 2.7622
rclavicle -9.54166e-015 9.24349e-015
rhumerus -237.521 -213.321 94.4005
rradius 123.452
rwrist -14.6592
rhand -16.8453 12.141
rfingers 7.12502
rthumb 9.38458 -17.6301
lclavicle -9.54166e-015 9.24349e-015
lhumerus -47.3583 -60.55 84.6887
lradius 112.94
lwrist 20.0591
lhand -16.8633 -375.701
lfingers 7.12502
lthumb 9.36724 14.0713
rfemur -19.0069 -21.8785 11.6756
rtibia 29.7231
rfoot 6.1797 -1.97978
rtoes 8.63783
lfemur 162.387 177.018 164.72
ltibia 24.7103
lfoot 6.01804 -0.194579
ltoes 11.307
623
root 0.589549 1.6419 18.1329 -441.461 -175.051 -715.405
lowerback -10.6901 1.5367 -2.49786
upperback -0.223149 2.36797 -4.22875
thorax 5.84934 1.05397 -2.67555
lowerneck -11.3946 -7.16315 -5.03364
upperneck 2.88788 -9.79395 8.46984
head 3.36935 -4.73709 2.7224
rclavicle -1.59028e-015 3.62782e-014
rhumerus -237.569 -213.643 94.1069
rradius 123.322
rwrist -14.96
rhand -16.806 12.1011
rfingers 7.12502
rthumb 9.42251 -17.6683
lclavicle -1.59028e-015 3.62782e-014
lhumerus -47.7301 -60.6251 85.1944
lradius 112.858
lwrist 20.4063
lhand -16.7111 -375.665
lfingers 7.12502
lthumb 9.51413 14.1006
rfemur -18.939 -22.092 11.6502
rtibia 29.7116
rfoot 6.1601 -1.97166
rtoes 8.70464
lfemur 162.419 177.127 164.743
ltibia 24.7267
lfoot 5.84877 -0.0116338
ltoes 11.2921
624
root 0.588205 1.63974 18.1335 -441.507 -175.07 -715.326
lowerback -10.6415 1.48795 -2.51997
upperback -0.19703 2.30734 -4.19821
thorax 5.84545 1.02512 -2.64086
lowerneck -11.4212 -7.1311 -4.90636
upperneck 2.80825 -9.75097 8.34155
head 3.3334 -4.71926 2.66847
rclavicle 1.74931e-014 7.95139e-016
rhumerus -237.621 -213.958 93.7582
rradius 123.181
rwrist -15.1983
rhand -16.7871 12.0568
rfingers 7.12502
rthumb 9.44076 -17.7118
lclavicle 1.74931e-014 7.95139e-016
lhumerus -48.0764 -60.7233 85.6416
lradius 112.779
lwrist 20.7137
lhand -16.5659 -375.616
lfingers 7.12502
lthumb 9.65416 14.1432
rfemur -18.8724 -22.3376 11.6497
rtibia 29.7009
rfoot 6.15562 -1.93689
rtoes 8.96492
lfemur 162.443 177.144 164.781
ltibia 24.7386
lfoot 5.74697 0.112656
ltoes 11.3959
625
root 0.587818 1.63789 18.1335 -441.548 -175.067 -715.27
lowerback -10.6082 1.43575 -2.6028
upperback -0.16278 2.25006 -4.13468
thorax 5.85518 0.996072 -2.53624
lowerneck -11.4106 -7.1038 -4.85039
upperneck 2.67353 -9.69878 8.20668
head 3.27726 -4.69853 2.62667
rclavicle 0 3.71727e-014
rhumerus -237.668 -214.337 93.482
rradius 123.035
rwrist -15.4575
rhand -16.7988 12.067
rfingers 7.12502
rthumb 9.42949 -17.702
lclavicle 0 3.71727e-014
lhumerus -48.3978 -60.7725 86.1274
lradius 112.679
lwrist 21.0007
lhand -16.3902 -375.569
lfingers 7.12502
lthumb 9.82375 14.1818
rfemur -18.8084 -22.4424 11.6218
rtibia 29.691
rfoot 6.13293 -1.93651
rtoes 9.30804
lfemur 162.479 177.234 164.802
ltibia 24.7479
lfoot 5.57192 0.320217
ltoes 11.4804
626
root 0.587345 1.63654 18.1338 -441.577 -175.081 -715.188
lowerback -10.5827 1.39511 -2.63021
upperback -0.146351 2.20061 -4.11065
thorax 5.85473 0.97205 -2.50335
lowerneck -11.3803 -7.07811 -4.74138
upperneck 2.55308 -9.66522 8.10369
head 3.22297 -4.68713 2.58505
rclavicle 4.77083e-015 2.48481e-014
rhumerus -237.764 -214.626 93.0824
rradius 122.882
rwrist -15.7384
rhand -16.8119 12.0625
rfingers 7.12502
rthumb 9.41681 -17.7071
lclavicle 4.77083e-015 2.48481e-014
lhumerus -48.7834 -60.9007 86.6152
lradius 112.597
lwrist 21.3046
lhand -16.2583 -375.54
lfingers 7.12502
lthumb 9.95097 14.2043
rfemur -18.7553 -22.5701 11.6198
rtibia 29.6796
rfoot 6.11216 -1.88566
rtoes 9.70001
lfemur 162.487 177.289 164.843
ltibia 24.7588
lfoot 5.43298 0.465651
ltoes 11.5784
